# xmcd
#
# Track frame offsets:
#	150
#	16052
#	29752
#	46290
#	65427
#	84800
#	102765
#	120002
#	139112
#	156755
#	174527
#	191952
#	208035
#	225205
#	241637
#	254035
#	270232
#
# Disc length: 3771
#
# Revision: 2
# Processed by: cddbd v1.5.1PL0 Copyright (c) Steve Scherf et al.
# Submitted via: CDex 1.30Release
# Normalized: r1:DSETVAR1,TDELIM( - )
#
DISCID=d20eb911
DTITLE=Various Artist - New Country 8
DYEAR=2001
DGENRE=Country
TTITLE0=dixie chicks - without you
TTITLE1=gary allen - right where i need you to be
TTITLE2=toby keith - you shouldn't kiss me like that
TTITLE3=jessica andrews - who i am
TTITLE4=travis tritt - best of intentions
TTITLE5=terri clark - no fear
TTITLE6=blake shelton - austin
TTITLE7=vince gill - feels like love
TTITLE8=the wilkinsons - it was only a kiss
TTITLE9=jamie o'neal - there is no arizona
TTITLE10=john michael montgomery - the little girl
TTITLE11=paul brandt - there's nothing i wouldn't do
TTITLE12=tim rushlow - she misses him
TTITLE13=adam gregory - only know i do
TTITLE14=shirley myers - do you love me
TTITLE15=tara lyn hart - what he used to do
TTITLE16=trick pony - pour me
EXTD=YEAR: 2001 ID3G:   2
EXTT0=
EXTT1=
EXTT2=
EXTT3=
EXTT4=
EXTT5=
EXTT6=
EXTT7=
EXTT8=
EXTT9=
EXTT10=
EXTT11=
EXTT12=
EXTT13=
EXTT14=
EXTT15=
EXTT16=
PLAYORDER=
